<svg xmlns="http://www.w3.org/2000/svg" xmlns:xlink="http://www.w3.org/1999/xlink" width="488.8599853515625" height="488.8603515625" viewBox="0 0 488.8599853515625 488.8603515625" fill="none"><g opacity="1"  transform="translate(48.9095458984375 51.953125)"><path id="圆形 1" fill-rule="evenodd" style="fill:#70C13F" opacity="1" d="M194 0C86.86 0 0 86.86 0 194C0 301.14 86.86 388 194 388C301.14 388 388 301.14 388 194C388 86.86 301.14 0 194 0Z"></path><g opacity="1"  transform="translate(6.086181640625 4.5654296875)"><path id="圆形 1" fill-rule="evenodd" style="fill:#FFFFFF" opacity="1" d="M189.434 -36.5186C65.4842 -36.5186 -34.9958 63.9615 -34.9958 187.911C-34.9958 311.861 65.4842 412.341 189.434 412.341C313.384 412.341 413.864 311.861 413.864 187.911C413.864 63.9615 313.384 -36.5186 189.434 -36.5186Z"></path><path fill-rule="evenodd"  id="圆形 1" style="fill:#2D6343; opacity:1;" d="M433.864 187.911C433.864 52.9165 324.429 -56.5186 189.434 -56.5186C54.4392 -56.5186 -54.9958 52.9165 -54.9958 187.911C-54.9958 322.906 54.4392 432.341 189.434 432.341C324.429 432.341 433.864 322.906 433.864 187.911ZM-34.9958 187.911C-34.9958 63.9615 65.4842 -36.5186 189.434 -36.5186C313.384 -36.5186 413.864 63.9615 413.864 187.911C413.864 311.861 313.384 412.341 189.434 412.341C65.4842 412.341 -34.9958 311.861 -34.9958 187.911Z"></path><path id="圆形 1" fill-rule="evenodd" style="fill:#70C13F" opacity="1" d="M190.2 0C85.15 0 0 85.15 0 190.2C0 295.24 85.15 380.39 190.2 380.39C295.24 380.39 380.39 295.24 380.39 190.2C380.39 85.15 295.24 0 190.2 0Z"></path><path id="路径 3" fill-rule="evenodd" style="fill:#FFFFFF" opacity="1" d="M115.638 260.947C135.168 294.667 172.698 330.937 189.438 330.937C206.168 330.937 243.168 294.867 263.228 260.947C283.298 227.037 284.528 172.697 284.528 172.697L96.6182 172.697C96.6182 172.697 96.1082 227.237 115.638 260.947Z"></path><path id="路径 4" fill-rule="evenodd" style="fill:#73C23C" opacity="1" d="M229.756 252.576C221.556 275.986 199.326 306.596 199.326 306.596C199.326 306.596 229.736 279.006 242.216 255.376C254.706 231.756 260.186 191.716 260.186 191.716L239.646 191.716C239.646 191.716 237.956 229.176 229.756 252.576Z"></path><path id="拼合图形" fill-rule="evenodd" style="fill:#FFFFFF" opacity="1" d="M203.932 98.9014L205.062 58.1538C205.244 51.3067 199.751 45.6465 192.889 45.6465L184.46 45.6465C177.597 45.6465 172.105 51.3067 172.287 58.1538L173.417 98.9014L130.855 98.9014C100.606 98.9014 76.0785 123.429 76.0785 153.678L302.792 153.678C302.792 123.429 278.264 98.9014 248.016 98.9014L203.932 98.9014Z"></path></g></g></svg>